<svg xmlns="http://www.w3.org/2000/svg" version="1.1" xmlns:xlink="http://www.w3.org/1999/xlink" xmlns:svgjs="http://svgjs.dev/svgjs" width="2000" height="1247" viewBox="0 0 2000 1247"><g transform="matrix(1,0,0,1,-1.2121212121212466,0.504858299595071)"><svg viewBox="0 0 396 247" data-background-color="#ece7e1" preserveAspectRatio="xMidYMid meet" height="1247" width="2000" xmlns="http://www.w3.org/2000/svg" xmlns:xlink="http://www.w3.org/1999/xlink"><g id="tight-bounds" transform="matrix(1,0,0,1,0.2400000000000091,-0.09999999999999432)"><svg viewBox="0 0 395.52 247.2" height="247.2" width="395.52"><g><svg></svg></g><g><svg viewBox="0 0 395.52 247.2" height="247.2" width="395.52"><g transform="matrix(1,0,0,1,75.54432,57.690157164869035)"><svg viewBox="0 0 244.43135999999998 131.81968567026192" height="131.81968567026192" width="244.43135999999998"><g><svg viewBox="0 0 244.43135999999998 131.81968567026192" height="131.81968567026192" width="244.43135999999998"><g><svg viewBox="0 0 244.43135999999998 131.81968567026192" height="131.81968567026192" width="244.43135999999998"><g><svg viewBox="0 0 244.43135999999998 131.81968567026192" height="131.81968567026192" width="244.43135999999998"><g id="textblocktransform"><svg viewBox="0 0 244.43135999999998 131.81968567026192" height="131.81968567026192" width="244.43135999999998" id="textblock"><g><svg viewBox="0 0 244.43135999999998 131.81968567026192" height="131.81968567026192" width="244.43135999999998"><g transform="matrix(1,0,0,1,0,0)"><svg width="244.43135999999998" viewBox="2.6 -35 64.9 35" height="131.81968567026192" data-palette-color="#1a1818"><path d="M33.45-30.65L13.7-30.65 11.55-19.9 29.15-19.9 28.3-15.65 10.7-15.65 8.45-4.35 28.9-4.35 28.05 0 2.6 0 9.6-35 34.3-35 33.45-30.65ZM62.55 0L60.45-8.75 41.75-8.75 36.2 0 30.8 0 53.7-35 58.65-35 67.5 0 62.55 0ZM44.3-12.75L59.45-12.75 55.3-30 44.3-12.75Z" opacity="1" transform="matrix(1,0,0,1,0,0)" fill="#1a1818" class="wordmark-text-0" data-fill-palette-color="primary" id="text-0"></path></svg></g></svg></g></svg></g></svg></g></svg></g></svg></g></svg></g><path d="M246.494 51.69L246.494 5.921 11.136 5.921 11.136 241.279 246.494 241.279 246.494 195.51 234.606 195.51 234.606 229.391 23.024 229.391 23.024 17.809 234.606 17.809 234.606 51.69Z" fill="#1a1818" stroke="transparent" data-fill-palette-color="tertiary"></path></svg></g><defs></defs></svg><rect width="395.52" height="247.2" fill="none" stroke="none" visibility="hidden"></rect></g></svg></g></svg>