<svg xmlns="http://www.w3.org/2000/svg" version="1.1" xmlns:xlink="http://www.w3.org/1999/xlink" xmlns:svgjs="http://svgjs.dev/svgjs" width="2000" height="1999" viewBox="0 0 2000 1999"><g transform="matrix(1,0,0,1,-0.431486880466764,-0.4312711370263287)"><svg viewBox="0 0 343 343" data-background-color="#ece7e1" preserveAspectRatio="xMidYMid meet" height="1999" width="2000" xmlns="http://www.w3.org/2000/svg" xmlns:xlink="http://www.w3.org/1999/xlink"><g id="tight-bounds" transform="matrix(1,0,0,1,0.0740000000000407,0.07400000000001228)"><svg viewBox="0 0 342.85155851775386 342.85155851775386" height="342.85155851775386" width="342.85155851775386"><g><svg></svg></g><g><svg viewBox="0 0 342.85155851775386 342.85155851775386" height="342.85155851775386" width="342.85155851775386"><g><path d="M0 171.426c0-94.676 76.75-171.426 171.426-171.426 94.676 0 171.426 76.75 171.426 171.426 0 94.676-76.75 171.426-171.426 171.426-94.676 0-171.426-76.75-171.426-171.426zM171.426 332.986c89.228 0 161.561-72.333 161.56-161.56 0-89.228-72.333-161.561-161.56-161.561-89.228 0-161.561 72.333-161.561 161.561 0 89.228 72.333 161.561 161.561 161.56z" data-fill-palette-color="tertiary" fill="#1a1818" stroke="transparent"></path><ellipse rx="164.56874808852186" ry="164.56874808852186" cx="171.42577925887693" cy="171.42577925887693" fill="#1a1818" stroke="transparent" stroke-width="0" fill-opacity="1" data-fill-palette-color="tertiary"></ellipse></g><g transform="matrix(1,0,0,1,64.84655864529837,116.72969829882928)"><svg viewBox="0 0 213.1584412271571 109.39216192009529" height="109.39216192009529" width="213.1584412271571"><g><svg viewBox="0 0 213.1584412271571 109.39216192009529" height="109.39216192009529" width="213.1584412271571"><g><svg viewBox="0 0 213.1584412271571 109.39216192009529" height="109.39216192009529" width="213.1584412271571"><g><svg viewBox="0 0 213.1584412271571 109.39216192009529" height="109.39216192009529" width="213.1584412271571"><g id="textblocktransform"><svg viewBox="0 0 213.1584412271571 109.39216192009529" height="109.39216192009529" width="213.1584412271571" id="textblock"><g><svg viewBox="0 0 213.1584412271571 109.39216192009529" height="109.39216192009529" width="213.1584412271571"><g transform="matrix(1,0,0,1,0,0)"><svg width="213.1584412271571" viewBox="1.45 -35 68.2 35" height="109.39216192009529" data-palette-color="#ece7e1"><path d="M33.55-28.5L15.2-28.5 13.7-20.9 29.95-20.9 28.7-14.6 12.4-14.6 10.8-6.5 29.9-6.5 28.55 0 1.45 0 8.45-35 34.9-35 33.55-28.5ZM61.55 0L59.9-7.5 43.6-7.5 39.05 0 30.4 0 53.05-35 61.05-35 69.65 0 61.55 0ZM47.35-13.65L58.55-13.65 55.6-27.15 47.35-13.65Z" opacity="1" transform="matrix(1,0,0,1,0,0)" fill="#ece7e1" class="wordmark-text-0" data-fill-palette-color="quaternary" id="text-0"></path></svg></g></svg></g></svg></g></svg></g></svg></g></svg></g></svg></g></svg></g><defs></defs></svg><rect width="342.85155851775386" height="342.85155851775386" fill="none" stroke="none" visibility="hidden"></rect></g></svg></g></svg>