<svg xmlns="http://www.w3.org/2000/svg" version="1.1" xmlns:xlink="http://www.w3.org/1999/xlink" xmlns:svgjs="http://svgjs.dev/svgjs" width="2000" height="1999" viewBox="0 0 2000 1999"><g transform="matrix(1,0,0,1,-0.431486880466764,-0.4312711370263287)"><svg viewBox="0 0 343 343" data-background-color="#ece7e1" preserveAspectRatio="xMidYMid meet" height="1999" width="2000" xmlns="http://www.w3.org/2000/svg" xmlns:xlink="http://www.w3.org/1999/xlink"><g id="tight-bounds" transform="matrix(1,0,0,1,0.0740000000000407,0.07400000000001228)"><svg viewBox="0 0 342.85155851775386 342.85155851775386" height="342.85155851775386" width="342.85155851775386"><g><svg></svg></g><g><svg viewBox="0 0 342.85155851775386 342.85155851775386" height="342.85155851775386" width="342.85155851775386"><g><path d="M0 171.426c0-94.676 76.75-171.426 171.426-171.426 94.676 0 171.426 76.75 171.426 171.426 0 94.676-76.75 171.426-171.426 171.426-94.676 0-171.426-76.75-171.426-171.426zM171.426 332.256c88.824 0 160.831-72.006 160.83-160.83 0-88.824-72.006-160.831-160.83-160.831-88.824 0-160.831 72.006-160.831 160.831 0 88.824 72.006 160.831 160.831 160.83z" data-fill-palette-color="tertiary" fill="#1a1818" stroke="transparent"></path><ellipse rx="164.56874808852186" ry="164.56874808852186" cx="171.42577925887693" cy="171.42577925887693" fill="#1a1818" stroke="transparent" stroke-width="0" fill-opacity="1" data-fill-palette-color="tertiary"></ellipse></g><g transform="matrix(1,0,0,1,64.84655864529837,112.68132695218009)"><svg viewBox="0 0 213.1584412271571 117.48890461339369" height="117.48890461339369" width="213.1584412271571"><g><svg viewBox="0 0 213.1584412271571 117.48890461339369" height="117.48890461339369" width="213.1584412271571"><g><svg viewBox="0 0 213.1584412271571 117.48890461339369" height="117.48890461339369" width="213.1584412271571"><g><svg viewBox="0 0 213.1584412271571 117.48890461339369" height="117.48890461339369" width="213.1584412271571"><g id="textblocktransform"><svg viewBox="0 0 213.1584412271571 117.48890461339369" height="117.48890461339369" width="213.1584412271571" id="textblock"><g><svg viewBox="0 0 213.1584412271571 117.48890461339369" height="117.48890461339369" width="213.1584412271571"><g transform="matrix(1,0,0,1,0,0)"><svg width="213.1584412271571" viewBox="3.1 -35 63.49999999999999 35" height="117.48890461339369" data-palette-color="#ece7e1"><path d="M33.45-31.8L13.1-31.8 10.6-19.35 28.75-19.35 28.15-16.2 10-16.2 7.4-3.2 28.45-3.2 27.8 0 3.1 0 10.1-35 34.1-35 33.45-31.8ZM62.9 0L60.55-9.35 41-9.35 34.95 0 30.95 0 53.95-35 57.6-35 66.6 0 62.9 0ZM42.9-12.35L59.85-12.35 55.1-31.25 42.9-12.35Z" opacity="1" transform="matrix(1,0,0,1,0,0)" fill="#ece7e1" class="wordmark-text-0" data-fill-palette-color="quaternary" id="text-0"></path></svg></g></svg></g></svg></g></svg></g></svg></g></svg></g></svg></g></svg></g><defs></defs></svg><rect width="342.85155851775386" height="342.85155851775386" fill="none" stroke="none" visibility="hidden"></rect></g></svg></g></svg>